<svg xmlns="http://www.w3.org/2000/svg" width="62.998" height="63.018" viewBox="0 0 62.998 63.018">
  <path id="Контур_49" data-name="Контур 49" d="M954.282,252.425v-27.2l-5.62.007c0-1.586-.214-8.4.119-9.3l5.54-.022c-.315-5.261-.556-11.607,3.389-15.277,3.314-3.083,10.971-2.709,16.243-2.529l-.012,9.314c-1.935.066-6.492-.347-7.669.724-1,.909-1.029,6.119-.722,7.772l8.435-.023-1,9.278-7.452.073-.064,27.188c4.915-.135,9.949.022,14.887-.011,5.782-.038,4.755-5.333,4.755-10.322V197.135c0-2.738.421-4.53-1.3-6.25s-3.5-1.344-6.25-1.344H932.6c-1.656,0-6.07-.2-7.347.24a4.515,4.515,0,0,0-2.131,1.535,5.158,5.158,0,0,0-.888,3.027c-.145,17.406.076,35.013.005,52.463-.011,2.742.595,4.242,2.426,5.152,1.745.867,11.824.46,14.557.46C944.233,252.418,949.28,252.355,954.282,252.425Z" transform="translate(-922.187 -189.495)" fill="#3b599a" fill-rule="evenodd"/>
</svg>
