<svg xmlns="http://www.w3.org/2000/svg" width="139" height="139" viewBox="0 0 139 139">
  <g id="Сгруппировать_97" data-name="Сгруппировать 97" transform="translate(-409 -5262)">
    <circle id="Эллипс_9" data-name="Эллипс 9" cx="69.5" cy="69.5" r="69.5" transform="translate(409 5262)" fill="#fad000"/>
    <g id="Сгруппировать_20" data-name="Сгруппировать 20" transform="translate(439 5292)">
      <path id="Контур_9" data-name="Контур 9" d="M203.295,201.041l2.014,1.359a19.8,19.8,0,0,0-1.077-4.961l-1.509-1.02A20.873,20.873,0,0,1,203.295,201.041Z" transform="translate(-127.382 -167.756)" fill-rule="evenodd"/>
      <path id="Контур_10" data-name="Контур 10" d="M189.7,216.961,192.712,219a20.279,20.279,0,0,0,3.763-1.2l-2.931-1.984A20.7,20.7,0,0,1,189.7,216.961Z" transform="translate(-142.797 -141.433)" fill-rule="evenodd"/>
      <path id="Контур_11" data-name="Контур 11" d="M203.686,196.229a20.4,20.4,0,0,0-2.555-3.9,20.669,20.669,0,0,1,1.395,3.123Z" transform="translate(-127.763 -174.315)" fill-rule="evenodd"/>
      <path id="Контур_12" data-name="Контур 12" d="M205.46,202.822l-2.124-1.437a20.476,20.476,0,0,1-.942,5.018l2.41,1.63a20.113,20.113,0,0,0,.656-5.1Z" transform="translate(-127.46 -160.025)" fill-rule="evenodd"/>
      <path id="Контур_13" data-name="Контур 13" d="M186.917,217.077a19.782,19.782,0,0,1-2.243-.125l3.118,2.109c.645.062,1.3.1,1.962.1a19.619,19.619,0,0,0,2.3-.135l-3.04-2.056A19.922,19.922,0,0,1,186.917,217.077Z" transform="translate(-150.07 -141.159)" fill-rule="evenodd"/>
      <path id="Контур_14" data-name="Контур 14" d="M178.46,215a19.906,19.906,0,0,0,7.672,3.971l-3.18-2.15A20.608,20.608,0,0,1,178.46,215Z" transform="translate(-159.491 -141.628)" fill-rule="evenodd"/>
      <path id="Контур_15" data-name="Контур 15" d="M200.6,209.941l2.612,1.766a19.789,19.789,0,0,0,1.629-3.592l-2.467-1.666A20.722,20.722,0,0,1,200.6,209.941Z" transform="translate(-127.89 -153.449)" fill-rule="evenodd"/>
      <path id="Контур_16" data-name="Контур 16" d="M197.789,213.233l2.774,1.869a20.051,20.051,0,0,0,2.64-3.179l-2.65-1.8A20.849,20.849,0,0,1,197.789,213.233Z" transform="translate(-128.565 -142.796)" fill-rule="evenodd"/>
      <path id="Контур_17" data-name="Контур 17" d="M193.918,215.773l2.905,1.963a20.371,20.371,0,0,0,3.685-2.5l-2.806-1.895A20.822,20.822,0,0,1,193.918,215.773Z" transform="translate(-136.595 -142.026)" fill-rule="evenodd"/>
      <path id="Контур_18" data-name="Контур 18" d="M195.97,209.7v-3.036h1.977a16.391,16.391,0,0,0,6.987-1.441,12.171,12.171,0,0,0,4.417-3.108h3c-.072,1.564-.142,3.4-.214,5.486s-.11,3.973-.11,5.637v21.4a4.4,4.4,0,0,0,.564,2.251,3.331,3.331,0,0,0,1.6,1.46,13.753,13.753,0,0,0,3.065.728q2.133.317,3.178.363V242H196.112v-2.56c.716-.05,1.845-.151,3.377-.312a19.578,19.578,0,0,0,3.156-.485,3.293,3.293,0,0,0,1.705-1.17,4.1,4.1,0,0,0,.605-2.44V209.7Zm-.464,40.343c-.091.214-1.119.031-2.654-.644a22.175,22.175,0,0,1-5.464-3.54,31.871,31.871,0,0,1-7.8-10.335,31.608,31.608,0,0,1,6.483-36.1,22.071,22.071,0,0,1,5.253-3.843c1.484-.766,2.512-1.009,2.613-.8.231.454-3.187,2.512-6.625,5.911a29.893,29.893,0,0,0-6.123,34.071,30.043,30.043,0,0,0,7.372,9.752c3.62,3.2,7.16,5.051,6.949,5.524Zm33.548-6.644a29.848,29.848,0,0,0,.675-42.06c-3.147-3.317-6.281-5.436-6.038-5.877.12-.2,1.088.07,2.469.836a21.415,21.415,0,0,1,4.85,3.812,31.624,31.624,0,0,1-.716,44.561,21.987,21.987,0,0,1-4.982,3.661c-1.4.716-2.368.958-2.479.747-.243-.454,2.964-2.462,6.221-5.678ZM245.4,222.068a37.2,37.2,0,1,0-37.2,37.2A37.245,37.245,0,0,0,245.4,222.068Z" transform="translate(-170.992 -184.857)" fill-rule="evenodd"/>
    </g>
  </g>
</svg>
