<svg xmlns="http://www.w3.org/2000/svg" width="139" height="139" viewBox="0 0 139 139">
  <g id="Сгруппировать_101" data-name="Сгруппировать 101" transform="translate(-891 -5570)">
    <circle id="Эллипс_12" data-name="Эллипс 12" cx="69.5" cy="69.5" r="69.5" transform="translate(891 5570)" fill="#fad000"/>
    <path id="Контур_7" data-name="Контур 7" d="M472.245,459.318c-3.585-3.829-13.666-2.871-18.649-5.5-2.215,4.138-2.245,10.951-5.922,10.951a3.1,3.1,0,0,1-.493-.037c-5.542-.831-2.77-14.965-6.65-14.965s-1.11,14.133-6.65,14.965a3.1,3.1,0,0,1-.493.037c-3.677,0-3.709-6.813-5.922-10.951-4.98,2.63-15.059,1.672-18.633,5.5-1.943,2.077-2.952,14.944-2.952,20.657h69.3c0-5.713-1-18.58-2.936-20.657Zm-47.074-25.549c3.677,8.748,10.686,13.5,15.361,13.5,4.591,0,11.027-4.6,14.757-13.235a40.257,40.257,0,0,0,2.233-7.394,29.432,29.432,0,0,0,.946-8.14c0-8.971-8.031-16.53-17.937-16.53s-17.933,7.559-17.933,16.53a38.916,38.916,0,0,0,.417,6.081A35.677,35.677,0,0,0,425.171,433.769Z" transform="translate(520.118 5199.025)" fill-rule="evenodd"/>
  </g>
</svg>
