<svg xmlns="http://www.w3.org/2000/svg" width="139" height="139" viewBox="0 0 139 139">
  <g id="Сгруппировать_99" data-name="Сгруппировать 99" transform="translate(-1390 -5262)">
    <circle id="Эллипс_10" data-name="Эллипс 10" cx="69.5" cy="69.5" r="69.5" transform="translate(1390 5262)" fill="#fad000"/>
    <path id="Контур_8" data-name="Контур 8" d="M664.2,198.633h2.081c1.025,0,1.886-.465,1.886-1.015v-5.674a1.259,1.259,0,0,1,1.239-1.239h18.147a1.257,1.257,0,0,1,1.239,1.239v5.731c0,.513.882.958,1.883.958h2.084c1,0,1.884-.444,1.884-.958v-5.731a7.1,7.1,0,0,0-7.09-7.087H669.409a7.1,7.1,0,0,0-7.09,7.087v5.577c0,.608.864,1.112,1.884,1.112Zm53.077,3.576H639.688a4.613,4.613,0,0,0-4.607,4.61v20.6a1.914,1.914,0,0,0,.928,1.421c.014,0,.85.366,2.21.91a108.245,108.245,0,0,0,32.559,7.115V233.4c0-2.3,3.465-3.866,5.791-3.866H680.4c2.7,0,5.786,1.78,5.724,4.476v2.853a109.406,109.406,0,0,0,28.469-5.57c2.8-.967,6.337-2.475,6.376-2.484a1.873,1.873,0,0,0,.919-1.391v-20.6a4.614,4.614,0,0,0-4.605-4.61Zm-.253,33.272,2.077-.792c.371-.145.73-.29,1.062-.426V258.1a4.76,4.76,0,0,1-4.75,4.755H641.55a4.76,4.76,0,0,1-4.75-4.755V234.3c.069.021.136.048.207.076l.159.069c1.234.493,1.745.686,2.026.774a110.922,110.922,0,0,0,31.573,6.5v3.654a5.807,5.807,0,0,0,5.8,5.8H680.4a5.809,5.809,0,0,0,5.8-5.8v-3.654a111.936,111.936,0,0,0,29.457-5.752c.412-.145.861-.3,1.368-.493Zm-43.3,11.329a1.889,1.889,0,0,0,1.884,1.886h5.736a1.889,1.889,0,0,0,1.883-1.886v-2.832a1.881,1.881,0,0,0-1.883-1.874h-5.736a1.881,1.881,0,0,0-1.884,1.874v2.832Zm1.884-7.965a1.883,1.883,0,0,1-1.884-1.886v-2.135a1.883,1.883,0,0,1,1.884-1.886h5.736a1.883,1.883,0,0,1,1.883,1.886v2.135a1.883,1.883,0,0,1-1.883,1.886Z" transform="translate(780.92 5107.143)" fill-rule="evenodd"/>
  </g>
</svg>
