<svg xmlns="http://www.w3.org/2000/svg" width="139" height="139" viewBox="0 0 139 139">
  <g id="Сгруппировать_100" data-name="Сгруппировать 100" transform="translate(-1390 -5570)">
    <circle id="Эллипс_13" data-name="Эллипс 13" cx="69.5" cy="69.5" r="69.5" transform="translate(1390 5570)" fill="#fad000"/>
    <g id="Сгруппировать_19" data-name="Сгруппировать 19" transform="translate(1433 5601)">
      <path id="Контур_6" data-name="Контур 6" d="M662.1,415.939a5.966,5.966,0,1,0-5.965,5.968A5.965,5.965,0,0,0,662.1,415.939Z" transform="translate(-629.404 -389.915)" fill-rule="evenodd"/>
      <path id="Контур_7" data-name="Контур 7" d="M675.82,431.917c-2.5,1.45-4.655,2.6-6.154,3.371a7.93,7.93,0,0,1-3.624.819,8.474,8.474,0,0,1-3.854-.9c-1.465-.756-3.565-1.879-6-3.294-5.189.594-8.642,1.654-8.642,2.853,0,1.865,8.267,3.376,18.463,3.376s18.457-1.511,18.457-3.376C684.462,433.571,681.012,432.511,675.82,431.917Z" transform="translate(-639.276 -360.146)" fill-rule="evenodd"/>
      <path id="Контур_8" data-name="Контур 8" d="M654.667,429.7a14.387,14.387,0,1,1,14.385,14.722A14.553,14.553,0,0,1,654.667,429.7Zm9.586,42.353h0l.5.53c.025.026.053.049.081.08.134.137.263.273.389.405.039.043.078.08.12.123.117.125.237.238.352.356a.87.87,0,0,0,.092.094q.435.446.822.827a1.4,1.4,0,0,0,.1.1c.088.1.177.174.263.262.041.042.083.08.124.125l.23.224a1.1,1.1,0,0,0,.106.1c.1.1.2.2.3.29a2.379,2.379,0,0,0,.325.269.714.714,0,0,0,.106.066,1.976,1.976,0,0,0,.219.13c.046.024.09.028.136.052.064.021.131.049.2.066a.469.469,0,0,0,.138.021,1.765,1.765,0,0,0,.191.028h.03a1,1,0,0,0,.145-.014c.044-.007.09-.007.133-.014.062-.014.122-.038.184-.052l.12-.042c.067-.031.136-.073.2-.111a.769.769,0,0,1,.1-.049,2.357,2.357,0,0,0,.283-.24c.1-.094.2-.189.311-.3l.067-.064c.1-.1.2-.191.3-.292a.347.347,0,0,0,.057-.059c.382-.368.813-.8,1.287-1.285l.014-.014c.47-.471.979-1,1.522-1.574l.046-.042h0c7.691-8.115,21.931-25.354,21.931-41.743,0-15.648-12.561-28.336-26.725-28.336s-26.728,12.688-26.728,28.336c0,16.388,14.238,33.62,21.929,41.743Z" transform="translate(-642.324 -401.976)" fill-rule="evenodd"/>
    </g>
  </g>
</svg>
