<svg xmlns="http://www.w3.org/2000/svg" width="139" height="139" viewBox="0 0 139 139">
  <g id="Сгруппировать_98" data-name="Сгруппировать 98" transform="translate(-891 -5262)">
    <circle id="Эллипс_11" data-name="Эллипс 11" cx="69.5" cy="69.5" r="69.5" transform="translate(891 5262)" fill="#fad000"/>
    <path id="Контур_9" data-name="Контур 9" d="M433.915,184.858,391,200.927l2.39.895,40.531,15.173,37.669-14.1,5.249-1.968-42.919-16.069Zm-25.74,27.182,25.742,9.632,25.739-9.632v13.5c0,1.658-1.2,3.213-3.3,4.558-4.412,2.836-12.807,4.755-22.444,4.755-14.218,0-25.74-4.169-25.74-9.313v-13.5Zm68.587-8.759,2.6,19.068h-6.983l1.864-13.673.641-4.7Z" transform="translate(525.004 5122.142)" fill-rule="evenodd"/>
  </g>
</svg>
