<svg xmlns="http://www.w3.org/2000/svg" width="1920" height="459.68" viewBox="0 0 1920 459.68">
  <path id="Контур_26" data-name="Контур 26" d="M1664.348,0H1919.99V459.68c-1.945-.862-8.138-5.445-10.509-7.044-4.051-2.728-6.643-4.03-10.467-6.37-41.807-25.572-141.081-49.206-194.626-59.687-42.109-8.245-85.537-15.076-130.093-21.218-22.8-3.143-45.761-6.047-68.4-8.426l-69.2-7.185c-26.7-1.7-52.725-4.725-79.644-6.564-25.942-1.772-52.968-3.8-79.4-5.357-42.582-3.067-87.548-4.476-130.67-5.873-22.165-.718-44.751-1.544-66.995-1.885-21.244-.326-46.59-.017-67.225-1.108-67.963-.862-135.248-.4-202.773-2-33.373-.788-65.955-2-99.041-3.071l-71.236-3.44c-4.187-.23-8.374-.419-12.558-.666l-9.72-.963c-.154.164-.555-.12-.81-.211-11.448,1.772-131.751-9.188-151.952-11.057-42.9-3.968-93.091-9.346-136.052-15.3l-7.324-1.4c-.151.16-.552-.158-.813-.257-17.94,1.276-150.161-24.988-174.577-30.661C104.738,250.378,68.666,240.43,32.2,225.681L7.4,214.2c-2.541-1.272-4.912-3.05-7.412-3.886V0H1664.348Z" transform="translate(0.01)" fill="#fad000" fill-rule="evenodd"/>
</svg>
