<svg id="Сгруппировать_51" data-name="Сгруппировать 51" xmlns="http://www.w3.org/2000/svg" width="63.017" height="63.094" viewBox="0 0 63.017 63.094">
  <path id="Контур_50" data-name="Контур 50" d="M1324.292,250.424a31.663,31.663,0,0,0,1.654,10.137c.386,1.159.657,1.731,1.1,2.81a33.5,33.5,0,0,0,3.624,6.111l2.725,3.171c.177.177.3.3.48.48a35.691,35.691,0,0,0,3.76,3.1,31.088,31.088,0,0,0,14.9,5.6c.281.027.622.037.956.073.539.058,1.366.038,1.88.108a35.034,35.034,0,0,0,3.69-.181,30.689,30.689,0,0,0,11.922-3.708l1.221-.7a31.182,31.182,0,0,0,6.508-5.283,4.669,4.669,0,0,0,.468-.492c.694-.9,1.329-1.562,2.2-2.732a31.577,31.577,0,0,0,4.969-10.662,32.116,32.116,0,0,0,.055-15.37,31.17,31.17,0,0,0-5.98-12.119,35.312,35.312,0,0,0-3.188-3.462c-.585-.563-2.582-2.166-3.185-2.574a31.8,31.8,0,0,0-3.529-2.161,30.573,30.573,0,0,0-6.864-2.665,31.734,31.734,0,0,0-23.859,3.386,29.954,29.954,0,0,0-4.253,3.014l-3.659,3.607c-.113.127-.1.143-.211.27s-.127.131-.225.255a31.31,31.31,0,0,0-6.375,13.026A32.51,32.51,0,0,0,1324.292,250.424Z" transform="translate(-1324.292 -218.932)" fill="#2ba2db" fill-rule="evenodd"/>
  <path id="Контур_51" data-name="Контур 51" d="M1401.506,336.652a4.5,4.5,0,0,0,1.362-.753l16.124-10.27c.436-.288.823-.542,1.252-.8s.8-.666,1.418-.5c.162.506-.028.75-.63,1.22l-4.992,4.47a5.326,5.326,0,0,1-.5.459l-1.488,1.322c-.2.176-.275.3-.493.465l-5.946,5.365a5.51,5.51,0,0,0-.517.445c-.291.309-.881.553-.748.966.831.62,1.638,1.243,2.478,1.894.433.336.826.631,1.24.954a9.54,9.54,0,0,1,1.18.939c.359.175,3.771,2.834,4.144,3.128.519.408,3.612,2.864,4.175,3.1a1.928,1.928,0,0,0,2.482-.892c.487-.818,4.25-19.8,4.5-21.074.4-2.02.813-4.073,1.139-6.128.163-1.028.463-2.341-.787-2.49a9.427,9.427,0,0,0-2.906.787c-3.579,1.27-7.047,2.6-10.61,3.924-5.432,2.013-10.311,4.039-15.618,6.257a44.137,44.137,0,0,0-5.041,2.291c-.949.863-.323,1.73.58,2.172C1394.3,334.378,1399.883,336,1401.506,336.652Z" transform="translate(-1380.633 -301.436)" fill="#fff" fill-rule="evenodd"/>
  <path id="Контур_52" data-name="Контур 52" d="M1446.355,364.913c.257.583,2.187,7.042,2.575,8.273a6,6,0,0,0,1.084,2.537,12.184,12.184,0,0,0,.3-2.1l.709-5.93c.053-.429.077-.352.175-.394-.133-.412.458-.657.748-.966a5.489,5.489,0,0,1,.517-.445l5.947-5.365c.219-.17.293-.289.493-.465l1.489-1.322a5.325,5.325,0,0,0,.5-.459l4.992-4.47c.6-.47.792-.714.63-1.22-.614-.166-.977.231-1.418.5s-.816.516-1.252.8l-16.124,10.27A4.5,4.5,0,0,1,1446.355,364.913Z" transform="translate(-1425.481 -329.697)" fill="#cbe0ee" fill-rule="evenodd"/>
  <path id="Контур_53" data-name="Контур 53" d="M1467.755,447.232c.681.514,1.392-.3,1.731-.611a6.625,6.625,0,0,1,.692-.678,5.707,5.707,0,0,0,.729-.711c.227-.226.491-.411.739-.634a17,17,0,0,1,2.19-2,9.575,9.575,0,0,0-1.18-.939c-.414-.323-.807-.618-1.24-.954-.84-.652-1.647-1.274-2.479-1.894-.1.041-.122-.036-.175.394l-.709,5.93A12.183,12.183,0,0,1,1467.755,447.232Z" transform="translate(-1443.222 -401.206)" fill="#a8c6df" fill-rule="evenodd"/>
</svg>
