<svg xmlns="http://www.w3.org/2000/svg" width="668.657" height="180" viewBox="0 0 668.657 142.645">
  <g id="Сгруппировать_106" data-name="Сгруппировать 106" transform="translate(-397.828 -8575.427)">
    <path id="Контур_32" data-name="Контур 32" d="M-1045.592-133.844a3.28,3.28,0,0,0,3.273-3.273,3.281,3.281,0,0,0-3.273-3.276,3.281,3.281,0,0,0-3.275,3.276A3.281,3.281,0,0,0-1045.592-133.844Z" transform="translate(1452.238 8766.743)" fill="#9e9e9e" fill-rule="evenodd"/>
    <path id="Контур_33" data-name="Контур 33" d="M-1015.458-150.039a3.281,3.281,0,0,0,3.275-3.273,3.281,3.281,0,0,0-3.275-3.275,3.281,3.281,0,0,0-3.276,3.275A3.281,3.281,0,0,0-1015.458-150.039Z" transform="translate(1487.383 8747.854)" fill="#9e9e9e" fill-rule="evenodd"/>
    <path id="Контур_36" data-name="Контур 36" d="M-1043.146-126.85a7.836,7.836,0,0,0,7.821-7.82,7.836,7.836,0,0,0-7.821-7.821,7.835,7.835,0,0,0-7.818,7.821A7.835,7.835,0,0,0-1043.146-126.85Z" transform="translate(1449.792 8764.297)" fill="none" stroke="#9e9e9e" stroke-miterlimit="22.926" stroke-width="2" fill-rule="evenodd"/>
    <path id="Контур_31" data-name="Контур 31" d="M-982.077-145.344l593.255-18.076L-425.553-22.841l-612.559-20.2-9.242-67.217" transform="translate(1454.001 8739.887)" fill="none" stroke="#9e9e9e" stroke-miterlimit="22.926" stroke-width="2"/>
    <path id="Контур_35" data-name="Контур 35" d="M-1013.011-143.046a7.836,7.836,0,0,0,7.82-7.821,7.835,7.835,0,0,0-7.82-7.818,7.835,7.835,0,0,0-7.821,7.818A7.836,7.836,0,0,0-1013.011-143.046Z" transform="translate(1484.937 8745.409)" fill="none" stroke="#9e9e9e" stroke-miterlimit="22.926" stroke-width="2" fill-rule="evenodd"/>
  </g>
</svg>
