<svg id="Сгруппировать_52" data-name="Сгруппировать 52" xmlns="http://www.w3.org/2000/svg" width="63.017" height="44.116" viewBox="0 0 63.017 44.116">
  <path id="Контур_54" data-name="Контур 54" d="M2224.67,282.474l.037,2.043c.005.187.035.189.04.376a7.036,7.036,0,0,0,.015.817c.07.462.033,1.111.06,1.6.009.168.037.181.04.376a4.063,4.063,0,0,0,0,.412c.091.808.084,1.572.148,2.385.236,3.008.58,7.3,2.1,9.62a7.079,7.079,0,0,0,3.763,2.928,17.382,17.382,0,0,0,4.184.805l3.134.231c.372.051.8.045,1.182.065.639.034,1.35.114,1.964.115.836,0,1.623.077,2.458.074.321,0,.481.04.794.038l2.458.037c.283,0,.473.039.793.039a16.459,16.459,0,0,1,1.669.032l6.648.081c1.14,0,2.153-.038,3.289-.038.586,0,1.074-.038,1.625-.038s1.122.018,1.665,0c.186-.006.189-.035.375-.04h1.249c1.076,0,2.164-.076,3.251-.076l.792-.039c.261,0,.578.021.831,0,1.272-.105,3.148-.085,4.355-.219.135-.015.273,0,.408-.008l3.1-.225c.227-.011.519-.056.755-.077a16.15,16.15,0,0,0,3.483-.712c3.666-1.217,4.87-4.076,5.5-7.841.166-.982.285-1.98.352-2.974l.134-1.529c.106-.708.112-2.353.2-3.127.057-.508.007-1.123.071-1.593.037-.268,0-.55.01-.821.009-.168.037-.181.04-.376,0-.138,0-.279,0-.417,0-.32.04-.51.039-.793v-2.156c0-.313-.039-.473-.038-.794l-.04-1.624c-.042-.508-.056-1.047-.073-1.591-.006-.187-.035-.189-.04-.376l-.156-2.755c-.314-2.921-.46-7.039-2.126-9.517-.121-.18-.208-.321-.341-.49-.065-.084-.118-.153-.184-.232-1.493-1.765-3.72-2.454-5.983-2.787-.467-.069-1.02-.149-1.491-.172-.892-.044-1.818-.167-2.722-.189l-1.551-.112c-.133-.011-.28.005-.414,0-.168-.009-.181-.037-.376-.04l-2.005-.074c-.321,0-.48-.04-.793-.038-.582,0-1.035-.038-1.626-.037-.32,0-.51-.04-.793-.039h-.833c-.323,0-.494-.04-.793-.038-.278,0-.555,0-.832,0-.586,0-1.037-.038-1.625-.038-2.746,0-5.51-.076-8.279-.076-.591,0-1.053.038-1.625.038-1.155,0-2.189.038-3.327.038l-2.457.038c-.321,0-.481.04-.793.038-.277,0-.555,0-.832,0-.321,0-.481.04-.794.038-.6,0-1.075.039-1.664.038l-3.177.149c-.132.011-.281,0-.415,0-.386.011-.794.078-1.171.076l-3.137.228a18.954,18.954,0,0,0-4.258.807,7.245,7.245,0,0,0-4.81,5.208c-.142.424-.237.866-.345,1.318a29.95,29.95,0,0,0-.608,4.42c-.038.445-.187,1.908-.186,2.309Z" transform="translate(-2224.67 -260.435)" fill="red" fill-rule="evenodd"/>
  <path id="Контур_55" data-name="Контур 55" d="M2372.334,352.93l16.332-9.423s-.012-.018-.016-.011l-4.042-2.358c-1.362-.8-2.739-1.56-4.1-2.366-.682-.4-1.345-.782-2.035-1.177l-6.137-3.535Z" transform="translate(-2347.082 -321.469)" fill="#fff" fill-rule="evenodd"/>
</svg>
